
<svg t="1588925879150" class="icon" viewBox="0 0 1024 1024" version="1.1" xmlns="http://www.w3.org/2000/svg" p-id="11916" width="200" height="200"><path d="M926.033 825.688c0 28.144-26.825 50.96-59.915 50.96H158.504c-33.09 0-59.915-22.815-59.915-50.96 0-6.473 1.475-12.639 4.063-18.336l-0.641-0.54c82.906-167.108 272.879-473.871 354.724-638.84l0.153 1.657c7.997-19.51 29.759-33.532 55.423-33.532 24.578 0 45.604 12.851 54.365 31.074l0.126-1.387c81.578 164.432 272.535 473.179 355.809 641.029l-0.641 0.54c2.587 5.696 4.063 11.863 4.063 18.335zM555.719 376.251c-0.879-26.355-22.507-47.454-49.076-47.454-27.127 0-49.118 21.991-49.118 49.118l21.727 265.763h57.788m13.252 64.584c-0.232-0.279-0.473-0.55-0.713-0.823-10.393-12.059-25.767-19.704-42.936-19.704-31.3 0-56.674 25.374-56.674 56.674s25.374 56.674 56.674 56.674 56.674-25.374 56.674-56.674c0.001-13.74-4.891-26.337-13.025-36.147z" fill="#e6e6e6" p-id="11917"></path></svg>